# xmcd
#
# Track frame offsets:
#	150
#	16239
#	31826
#	50783
#	66790
#	80958
#	98379
#	114298
#	130678
#	145320
#	158499
#	174053
#	188698
#	204889
#
# Disc length: 2921 seconds
#
# Revision: 0
# Processed by: cddbd v1.4PL0 Copyright (c) Steve Scherf et al.
# Submitted via: dBpowerAMP V4.0
#
DISCID=a60b670e
DTITLE=João Pedro e Cristiano - Desejo de Amor
DYEAR=2003
DGENRE=sertanejo
TTITLE0=Ai Amor
TTITLE1=Amor Inconfidente
TTITLE2=Dona
TTITLE3=Desejo de Amor
TTITLE4=E Tu
TTITLE5=Alucinado Em Seu Amor
TTITLE6=Vou me Libertar de Você
TTITLE7=Gostoso Demais
TTITLE8=Entra e Sai de Amor
TTITLE9=A Pinga
TTITLE10=Tum Tum do Coração
TTITLE11=De Cara Cheia
TTITLE12=Quando eu Amor é Assim
TTITLE13=Forró Gostoso
EXTD=André Luis Bertini
EXTT0=
EXTT1=
EXTT2=
EXTT3=
EXTT4=
EXTT5=
EXTT6=
EXTT7=
EXTT8=
EXTT9=
EXTT10=
EXTT11=
EXTT12=
EXTT13=
PLAYORDER=
